<?xml version="1.0" ?><!DOCTYPE svg  PUBLIC '-//W3C//DTD SVG 1.1//EN'  'http://www.w3.org/Graphics/SVG/1.1/DTD/svg11.dtd'><svg enable-background="new 0 0 128 128" id="Слой_1" version="1.1" viewBox="0 0 128 128" xml:space="preserve" xmlns="http://www.w3.org/2000/svg" xmlns:xlink="http://www.w3.org/1999/xlink"><g><path d="M109.29,100.116L92.18,82.768c-1.19-1.206-3.275-1.222-4.482-0.031l-5.406,5.333   c-1.244,1.229-1.258,3.239-0.022,4.49l17.32,17.151c0.195,0.192,0.449,0.289,0.704,0.289c0.254,0,0.508-0.096,0.703-0.288   l8.285-8.182C109.674,101.142,109.678,100.509,109.29,100.116z M100.294,107.594L83.685,91.146c-0.453-0.459-0.448-1.2,0.011-1.653   l5.406-5.333c0.22-0.217,0.512-0.336,0.821-0.336c0.315,0,0.611,0.123,0.833,0.348l16.408,16.637L100.294,107.594z" fill="#313638"/><path d="M94.188,55.883C94.188,34.994,77.193,18,56.305,18S18.422,34.994,18.422,55.883   c0,20.888,16.994,37.882,37.883,37.882S94.188,76.771,94.188,55.883z M56.305,91.765c-19.786,0-35.883-16.097-35.883-35.882   C20.422,36.097,36.519,20,56.305,20s35.883,16.097,35.883,35.883C92.188,75.668,76.091,91.765,56.305,91.765z" fill="#313638"/><path d="M41.407,56.509c-1.392-0.869-3.317-1.515-5.776-1.938c-1.441-0.248-2.609-0.708-3.504-1.379   c-1.068-0.77-1.603-1.727-1.603-2.87c0-1.093,0.46-1.962,1.379-2.608c0.944-0.646,2.187-0.969,3.728-0.969   c1.291,0,2.409,0.423,3.354,1.267c0.919,0.87,1.503,2.013,1.752,3.429h2.832c0-2.186-0.721-3.938-2.161-5.255   c-1.441-1.316-3.367-1.975-5.776-1.975c-2.41,0-4.336,0.559-5.776,1.677c-1.441,1.118-2.162,2.597-2.162,4.435   c0,1.814,0.82,3.342,2.46,4.584c1.44,1.068,3.267,1.802,5.479,2.199c1.664,0.298,2.943,0.695,3.838,1.192   c1.217,0.695,1.826,1.628,1.826,2.795c0,1.292-0.521,2.323-1.565,3.093c-1.019,0.771-2.385,1.155-4.099,1.155   c-1.715,0-3.081-0.521-4.1-1.564c-1.044-1.019-1.565-2.386-1.565-4.1h-2.832c0,2.484,0.77,4.472,2.311,5.963   c1.565,1.49,3.627,2.235,6.187,2.235c2.559,0,4.621-0.646,6.186-1.938c1.541-1.267,2.311-2.969,2.311-5.105   C44.127,59.043,43.22,57.603,41.407,56.509z" fill="#313638"/><polygon fill="#313638" points="47.485,67.316 63.063,67.316 63.063,64.633 50.318,64.633 50.318,56.956 61.647,56.956    61.647,54.272 50.318,54.272 50.318,47.341 63.063,47.341 63.063,44.658 47.485,44.658  "/><path d="M82.782,47.416c-1.839-2.137-4.299-3.205-7.379-3.205c-3.081,0-5.553,1.068-7.416,3.205   c-1.863,2.161-2.795,5.019-2.795,8.571c0,3.503,0.932,6.311,2.795,8.422c1.863,2.112,4.335,3.168,7.416,3.168   c3.08,0,5.54-1.056,7.379-3.168c1.863-2.111,2.795-4.919,2.795-8.422C85.577,52.435,84.646,49.577,82.782,47.416z M80.732,62.583   c-1.342,1.641-3.118,2.46-5.329,2.46c-2.236,0-4.024-0.819-5.366-2.46c-1.342-1.664-2.013-3.862-2.013-6.596   c0-2.808,0.671-5.043,2.013-6.708c1.342-1.689,3.13-2.534,5.366-2.534c2.211,0,3.987,0.845,5.329,2.534   c1.342,1.665,2.013,3.9,2.013,6.708C82.745,58.721,82.074,60.919,80.732,62.583z" fill="#313638"/></g></svg>