<?xml version="1.0" encoding="utf-8"?>
<!-- Svg Vector Icons : http://www.onlinewebfonts.com/icon -->
<!DOCTYPE svg PUBLIC "-//W3C//DTD SVG 1.1//EN" "http://www.w3.org/Graphics/SVG/1.1/DTD/svg11.dtd">
<svg version="1.1" xmlns="http://www.w3.org/2000/svg" xmlns:xlink="http://www.w3.org/1999/xlink" x="0px" y="0px" viewBox="0 0 1000 1000" enable-background="new 0 0 1000 1000" xml:space="preserve">
<metadata> Svg Vector Icons : http://www.onlinewebfonts.com/icon </metadata>
<g><g><g><g><path d="M500,990C229.8,990,10,770.2,10,500C10,229.8,229.8,10,500,10c270.2,0,490,219.8,490,490C990,770.2,770.2,990,500,990z M500,68.8C262.2,68.8,68.8,262.2,68.8,500c0,237.8,193.4,431.2,431.2,431.2c237.8,0,431.2-193.4,431.2-431.2C931.2,262.2,737.8,68.8,500,68.8z"/></g><g><path d="M660.1,339.9c5.7,5.7,14.8,5.7,20.5,0l109.2-109.2c5.6-5.7,5.6-14.8,0-20.5c-5.6-5.7-14.8-5.7-20.5,0L660.1,319.4C654.5,325.1,654.5,334.2,660.1,339.9z"/><g><path d="M579.7,409.2c-6.5-6.5-13.3-11.1-20.2-13.8c-6.9-2.7-13.6-3.3-19.9-1.8s-12.1,4.7-17.2,9.8c-3.6,3.6-6.3,7.6-8,12.1c-1.7,4.4-2.4,9-2,13.9c0.4,4.8,2,9.9,4.7,15.2c2.8,5.3,6.7,10.5,11.7,15.5c5.1,5.1,10.3,9,15.7,11.8c5.4,2.8,10.6,4.4,15.6,4.8c5,0.4,9.7-0.3,14.1-2c4.4-1.7,8.4-4.3,12-8c4.6-4.6,7.7-10,9.3-16.2c1.6-6.2,1.1-12.8-1.5-20C591.5,423.4,586.7,416.3,579.7,409.2z"/><path d="M763.3,318.6l-20.5-20.5l-25.7,25.7c3.6,17-1.2,35.3-14.4,48.5c-20.7,20.7-54.3,20.7-75.1,0c-20.7-20.7-20.7-54.3,0-75.1c13.2-13.2,31.5-18,48.5-14.4l25.7-25.7l-20.5-20.5c-14.1-14.1-159.9-14.1-174,0L216.6,527.5c-14.1,14.1-14.1,37,0,51.2l204.7,204.7c14.1,14.1,37,14.1,51.2,0l290.9-290.8C777.5,478.4,777.5,332.7,763.3,318.6z M442.5,631.9c-2.9,7.8-8.1,15.4-15.4,22.7c-8.8,8.8-17.8,14.4-26.8,16.8c-6.5,1.7-13,1.8-19.5,0.3c-6.5-1.5-11.7-4.1-15.5-7.8c-2.2-2.2-3.3-4.8-3.3-8c0-3.1,1.1-5.8,3.5-8.2c1.9-1.9,4.1-2.9,6.7-3c2.5-0.1,5.5,0.6,8.8,2c4,1.7,7.6,2.9,10.8,3.5s6.7,0.3,10.3-0.9c3.6-1.2,7.4-3.7,11.3-7.6c5.4-5.4,8.5-10.9,9.3-16.8c0.8-5.8-0.6-10.6-4.3-14.4c-3-3-6.3-4.5-9.9-4.5c-3.7,0-7.4,0.9-11.3,2.8c-3.8,1.9-8.7,4.7-14.6,8.4c-7.9,4.9-15,8.5-21.4,10.8c-6.3,2.3-12.5,3-18.5,2.1c-6-0.9-11.6-4-16.8-9.1c-4.9-4.9-7.9-10.6-9.1-17.1c-1.1-6.5-0.2-13.3,2.8-20.4c3-7.1,8-14.1,14.8-21c5.5-5.5,10.9-9.6,16.3-12.2c5.4-2.6,10.5-4.2,15.4-4.5c4.9-0.4,9.2,0.1,12.9,1.3c3.7,1.3,6.7,3.1,9.1,5.4c2.1,2.1,3.3,4.9,3.5,8.1c0.2,3.3-0.8,6-3.1,8.3c-2.1,2.1-4.2,3.1-6.3,3.2c-2.1,0-5-0.5-8.6-1.6c-5-1.7-9.6-2.4-13.7-2s-8.8,3.1-13.8,8.1c-4.7,4.7-7.4,9.5-8.2,14.4c-0.8,4.9,0.2,8.8,3.1,11.7c1.8,1.8,3.8,2.9,6.1,3.2c2.3,0.3,4.7,0.1,7.4-0.7c2.6-0.8,5.1-1.8,7.4-3c2.3-1.2,5.9-3.3,11-6.3c6.2-3.9,12.1-7.1,17.6-9.8c5.5-2.7,10.7-4.4,15.6-5.2c4.9-0.8,9.7-0.5,14.4,1c4.7,1.5,9.3,4.5,13.8,9c5.4,5.4,8.9,11.6,10.4,18.7C446.1,616.7,445.4,624.1,442.5,631.9z M536.6,542.1l-49.1,49.2c-4,3.9-7.7,5.9-11.1,5.9c-3.5,0-7.2-2-11.1-5.9l-67.1-67.1c-2.6-2.6-4.3-5.1-5.2-7.5c-0.9-2.4-0.9-4.8,0-7.2c0.9-2.4,2.6-4.9,5.2-7.4l47.8-47.8c2.9-2.9,5.7-4.4,8.3-4.5c2.7-0.1,5.1,0.9,7.1,2.9c2.1,2.1,3.1,4.5,3,7.2c-0.1,2.7-1.6,5.5-4.5,8.4l-40.8,40.8l21.9,21.9l37.5-37.5c2.8-2.8,5.5-4.2,8-4.3c2.6-0.1,4.9,0.8,6.9,2.9c2,2,3,4.3,3,7c-0.1,2.6-1.5,5.3-4.3,8.1l-37.5,37.5l25.4,25.4l42.1-42.1c2.8-2.8,5.6-4.3,8.4-4.5c2.8-0.1,5.2,0.9,7.5,3.1c2.1,2.1,3.1,4.6,3,7.3C540.9,536.4,539.4,539.2,536.6,542.1z M616.1,459c-3.2,7.6-8.4,15-15.4,22c-7,7-14.4,12.1-22.1,15.4c-7.8,3.3-15.6,4.7-23.4,4.3c-7.8-0.4-15.5-2.5-23.2-6.4c-7.6-3.9-14.8-9.2-21.5-15.9c-6.9-6.9-12.2-14.1-15.9-21.8c-3.8-7.7-5.8-15.4-6.1-23.2c-0.3-7.8,1.2-15.4,4.4-22.9c3.2-7.5,8.3-14.6,15.1-21.5c9.2-9.2,19.1-15.3,29.5-18.2c10.4-2.9,20.8-2.6,31.1,1c10.3,3.5,20.2,9.9,29.5,19.3c6.9,6.9,12.3,14.1,16,21.6c3.8,7.5,5.9,15.2,6.3,23.1C620.8,443.6,619.4,451.4,616.1,459z"/></g></g></g></g><g></g><g></g><g></g><g></g><g></g><g></g><g></g><g></g><g></g><g></g><g></g><g></g><g></g><g></g><g></g></g>
</svg>