<?xml version="1.0" ?><svg height="60px" version="1.1" viewBox="0 0 60 60" width="60px" xmlns="http://www.w3.org/2000/svg" xmlns:xlink="http://www.w3.org/1999/xlink"><title/><desc/><defs/><g fill="none" fill-rule="evenodd" id="Page-1" stroke="none" stroke-width="1"><g fill-rule="nonzero" id="Social_icons" transform="translate(-622.000000, -654.000000)"><g id="Figma" transform="translate(622.000000, 654.000000)"><g fill="#333333" id="Color"><g id="Taobao"><g id="back"><g id="path0_fill-link"><path d="M0,30 C0,13.4315 13.4315,0 30,0 C46.5685,0 60,13.4315 60,30 C60,46.5685 46.5685,60 30,60 C13.4315,60 0,46.5685 0,30 Z" id="path0_fill"/></g></g></g></g><g id="Group" transform="translate(18.000000, 12.000000)"><g fill="#0ACF83" id="5" transform="translate(0.000000, 24.000000)"><g id="path1_fill-link"><path d="M6,12 C9.31371,12 12,9.31371 12,6 L12,0 L6,0 C2.68629,0 0,2.68629 0,6 C0,9.31371 2.68629,12 6,12 Z" id="path1_fill"/></g></g><g fill="#A259FF" id="4" transform="translate(0.000000, 12.000000)"><g id="path2_fill-link"><path d="M0,6 C0,2.68629 2.68629,0 6,0 L12,0 L12,12 L6,12 C2.68629,12 0,9.31371 0,6 Z" id="path2_fill"/></g></g><g fill="#F24E1E" id="3"><g id="path2_fill-link"><path d="M0,6 C0,2.68629 2.68629,0 6,0 L12,0 L12,12 L6,12 C2.68629,12 0,9.31371 0,6 Z" id="path2_fill"/></g></g><g fill="#FF7262" id="2" transform="translate(12.000000, 0.000000)"><g id="path3_fill-link"><path d="M0,0 L6,0 C9.31371,0 12,2.68629 12,6 C12,9.31371 9.31371,12 6,12 L0,12 L0,0 Z" id="path3_fill"/></g></g><g fill="#1ABCFE" id="1" transform="translate(12.000000, 12.000000)"><g id="path4_fill-link"><path d="M12,6 C12,9.31371 9.31371,12 6,12 C2.68629,12 0,9.31371 0,6 C0,2.68629 2.68629,0 6,0 C9.31371,0 12,2.68629 12,6 Z" id="path4_fill"/></g></g></g></g></g></g></svg>