<?xml version="1.0" encoding="utf-8"?>
<!-- Generator: Adobe Illustrator 16.0.0, SVG Export Plug-In . SVG Version: 6.00 Build 0)  -->
<!DOCTYPE svg PUBLIC "-//W3C//DTD SVG 1.1//EN" "http://www.w3.org/Graphics/SVG/1.1/DTD/svg11.dtd">
<svg version="1.1" xmlns="http://www.w3.org/2000/svg" xmlns:xlink="http://www.w3.org/1999/xlink" x="0px" y="0px" width="192px"
	 height="192px" viewBox="0 0 192 192" enable-background="new 0 0 192 192" xml:space="preserve">
<g id="Grid" display="none">
</g>
<g id="Layer_1">
</g>
<g id="Desktop">
</g>
<g id="Guides">
</g>
<g id="Page_1">
	<g id="Layer_1_1_">
		<g>
			<path fill-rule="evenodd" clip-rule="evenodd" fill="#FFFFFF" d="M141.129,75.757h9.472v31.758h16.155v8.171h-25.627V75.757
				L141.129,75.757z M74.705,94.781c0.198,0.308,4.333,4.005,4.396,4.005c0.65,0,19.062-15.055,21.541-16.712l6.385,5.285
				L85.761,104.2l4.482,3.871c1.98-1.326,21.358-17.126,21.358-17.643V75.757h9.284v31.758h16.899v8.171h-25.627l-0.044-14.914
				l-22.542,17.237l-22.542-17.18c-1.18,5.063-2.985,6.94-6.082,10.075c-1.994,2.018-7.628,4.781-11.562,4.781H31.557V75.757h17.828
				c8.402,0,16.025,7.909,17.7,14.931L89.55,73.281l6.413,5.398L74.705,94.781L74.705,94.781z M14.286,94.885v2.23
				c0,24.046,11.661,44.438,23.726,56.503c12.026,12.025,32.403,24.097,56.317,24.097h3.343c23.684,0,44.226-12.006,56.131-23.912
				c11.914-11.912,23.912-32.43,23.912-56.132v-3.342c0-23.687-12.006-44.228-23.912-56.132
				c-11.907-11.907-32.441-23.911-56.131-23.911h-2.416C51.367,14.286,14.286,51.121,14.286,94.885L14.286,94.885z"/>
			<path fill-rule="evenodd" clip-rule="evenodd" fill="#FFFFFF" d="M48.271,108.071C53.796,107.947,58.3,101.936,58.3,96
				c0-5.972-4.563-11.95-10.029-12.071h-7.8v24.143H48.271L48.271,108.071z"/>
			<polygon fill-rule="evenodd" clip-rule="evenodd" fill="#7FBDDB" points="48.271,108.071 40.472,108.071 40.472,83.929 
				48.271,83.929 40.286,83.743 40.286,108.265 48.271,108.071 			"/>
			<polygon fill-rule="evenodd" clip-rule="evenodd" fill="#007CB8" points="141.129,115.686 166.756,115.686 166.756,107.515 
				150.601,107.515 150.601,75.757 141.129,75.757 141.129,115.686 			"/>
			<path fill-rule="evenodd" clip-rule="evenodd" fill="#007CB8" d="M48.271,108.071l-7.985,0.193V83.743l7.985,0.186
				C53.737,84.05,58.3,90.028,58.3,96C58.3,101.936,53.796,107.947,48.271,108.071L48.271,108.071z M95.963,78.679l-6.413-5.398
				L67.085,90.688c-1.675-7.021-9.298-14.931-17.7-14.931H31.557v39.929h17.828c3.934,0,9.568-2.764,11.562-4.781
				c3.097-3.135,4.902-5.012,6.082-10.075l22.542,17.18l22.542-17.237l0.044,14.914h25.627v-8.171h-16.899V75.757h-9.284v14.671
				c0,0.517-19.378,16.317-21.358,17.643l-4.482-3.871l21.265-16.841l-6.385-5.285C98.162,83.731,79.75,98.786,79.1,98.786
				c-0.063,0-4.197-3.697-4.396-4.005L95.963,78.679L95.963,78.679z"/>
			<path fill-rule="evenodd" clip-rule="evenodd" fill="#007CB8" d="M14.286,94.885c0-43.764,37.082-80.599,80.971-80.599h2.416
				c23.689,0,44.224,12.004,56.131,23.911c11.906,11.904,23.912,32.445,23.912,56.132v3.342c0,23.702-11.998,44.22-23.912,56.132
				c-11.905,11.906-32.447,23.912-56.131,23.912h-3.343c-23.914,0-44.292-12.071-56.317-24.097
				c-12.065-12.065-23.726-32.457-23.726-56.503V94.885L14.286,94.885z M5,98.229c0,26.092,13.485,48.864,26.604,61.983
				c6.512,6.512,16.87,14.625,26.065,18.32c5.532,2.223,9.969,4.269,16.268,5.831C79.217,185.675,87.017,187,93.4,187h4.643
				c26.555,0,49.007-13.257,62.354-26.604C173.745,147.049,187,124.602,187,98.043v-4.644c0-13.896-4.306-26.054-8.482-35.902
				c-3.937-9.281-11.648-19.236-18.307-25.894C147.093,18.484,124.319,5,98.228,5h-4.456C67.688,5,44.909,18.669,31.789,31.789
				c-7.969,7.97-12.981,15.463-18.309,26.077C9.217,66.358,5,81.114,5,93.771V98.229L5,98.229z"/>
		</g>
	</g>
</g>
</svg>
